PathFileType	4	(x/y/z)	S08_P20_T19
DataRate	CameraRate	NumFrames	NumMarkers	Units	OrigDataRate	OrigDataStartFrame	OrigNumFrames
240	240	9	51	mm	240	198	394
Frame#	Time	Sternum			R.Acromium			L.Acromium			Top.Head			R.ASIS			L.ASIS			R.PSIS			L.PSIS			R.Great.Tro			L.Great.Tro			R.Iliac.Crest			L.Iliac.Crest			V.Sacral			R.Thigh.Upper.Post			R.Thigh.Lower.Ant			R.Thigh.Lower.Post			R.Thigh.Upper.Ant			R.Knee.Lat			R.Knee.Med			R.Shank.Upper.Post			R.Shank.Lower.Ant			R.Shank.Lower.Post			R.Shank.Upper.Ant			R.Ankle.Lat			R.Ankle.Med			R.Heel.Upper			R.Heel.Med			R.Heel.Lat			R.Toe.Lat			R.Toe.Med			R.Toe.Tip			L.Thigh.Upper.Post			L.Thigh.Lower.Ant			L.Thigh.Lower.Post			L.Thigh.Upper.Ant			L.Knee.Lat			L.Knee.Med			L.Shank.Upper.Post			L.Shank.Lower.Ant			L.Shank.Lower.Post			L.Shank.Upper.Ant			L.Ankle.Lat			L.Ankle.Med			L.Heel.Upper			L.Heel.Med			L.Heel.Lat			L.Toe.Lat			L.Toe.Med			L.Toe.Tip			Cervical.Spine			Back			
		X1	Y1	Z1	X2	Y2	Z2	X3	Y3	Z3	X4	Y4	Z4	X5	Y5	Z5	X6	Y6	Z6	X7	Y7	Z7	X8	Y8	Z8	X9	Y9	Z9	X10	Y10	Z10	X11	Y11	Z11	X12	Y12	Z12	X13	Y13	Z13	X14	Y14	Z14	X15	Y15	Z15	X16	Y16	Z16	X17	Y17	Z17	X18	Y18	Z18	X19	Y19	Z19	X20	Y20	Z20	X21	Y21	Z21	X22	Y22	Z22	X23	Y23	Z23	X24	Y24	Z24	X25	Y25	Z25	X26	Y26	Z26	X27	Y27	Z27	X28	Y28	Z28	X29	Y29	Z29	X30	Y30	Z30	X31	Y31	Z31	X32	Y32	Z32	X33	Y33	Z33	X34	Y34	Z34	X35	Y35	Z35	X36	Y36	Z36	X37	Y37	Z37	X38	Y38	Z38	X39	Y39	Z39	X40	Y40	Z40	X41	Y41	Z41	X42	Y42	Z42	X43	Y43	Z43	X44	Y44	Z44	X45	Y45	Z45	X46	Y46	Z46	X47	Y47	Z47	X48	Y48	Z48	X49	Y49	Z49	X50	Y50	Z50	X51	Y51	Z51	

198	0.82083	-258.23	1232.7	310.09	-363.27	1468.3	491.82	-394.47	1494.8	157.36	-364.5	1786.6	348.88	-289.63	1019.7	427.38	-289.76	1020.4	197.8	-490.58	1039.8	348.76	-487.65	1041	255.59	-361.97	911.58	497.35	-361.9	909.81	125.53	-383.63	1088.4	469.91	-385.57	1099.2	164.29	-504.51	998.63	302.07	-412.49	714.81	477.6	-349.9	610.01	434.37	-417.3	626.25	455.3	-336.05	701.28	459.99	-403.02	516.59	427.3	-433.52	528.59	302.59	-498.64	342.95	429.12	-447.39	274.48	402.36	-510.35	267.69	416.96	-435.36	350.27	415.45	-533.9	104.01	369.95	-510.04	117.04	293.42	-587.97	69.97	325.38	-576.77	40.885	299.85	-582.27	47.348	360.95	NaN	NaN	NaN	-387.04	43.597	285.14	-321.84	53.863	333.03	-277.87	707.47	142.41	-159.23	666.65	159.71	-221.93	636.56	158.58	-211.38	736.88	138.06	-168.57	560	174.23	-157.42	557.86	297.27	-225.2	384.91	168.17	-158.68	296.26	182.31	-228.56	312.08	181.82	-161.23	371.6	169.57	-211.13	138.83	187.66	-178.51	144.01	270.95	-260.14	109	240.08	-244.29	76.797	270.99	-255.47	80.879	207.9	-83.859	68.853	163.43	-55.206	78.978	274.79	3.0279	94.667	221.04	-446.39	1524.9	324.85	-493.75	1243.9	332.03
199	0.825	-252.8	1231.8	310.15	-357.72	1467.5	491.8	-389.01	1493.9	157.29	-359.11	1785.8	348.6	-284.4	1018.9	427.39	-284.26	1019.8	197.76	-485.19	1039	348.44	-482.18	1040.3	255.27	-357.23	911	497.23	-356.2	909.11	125.4	-378.4	1087.6	469.74	-380.14	1098.5	164.13	-499.07	997.86	301.72	-409.05	714.69	477.44	-347.02	609.43	434.52	-414.35	626.13	455.14	-332.68	700.65	460.12	-400.8	516.31	427.33	-430.67	528.41	302.45	-497.41	343.18	428.88	-446.44	274.39	402.27	-509.48	267.98	416.71	-434.03	350.11	415.39	-533.65	104.28	369.63	-509.58	117.19	293.15	-587.74	70.153	324.97	-576.57	40.988	299.51	-582.18	47.592	360.58	NaN	NaN	NaN	-386.86	43.559	285.1	-321.69	53.551	333.09	-273.04	706.49	142.39	-154.56	665.33	159.98	-217.33	635.41	158.65	-206.46	735.71	138.22	-163.64	558.89	174.45	-153.07	556.58	297.53	-216.22	382.2	168.18	-147.47	295.24	182.52	-217.78	309.3	181.83	-151.91	370.51	169.76	-195.68	136.23	187.76	-163.46	142.35	271.22	-244.2	105.2	240.05	-227.55	73.511	271.19	-238.69	77.138	208.04	-66.691	69.224	164.08	-38.566	80.374	275.55	19.385	97.31	221.86	-440.88	1524.1	324.82	-488.33	1243.1	331.98
200	0.82917	-247.37	1230.9	310.2	-352.16	1466.7	491.77	-383.55	1492.9	157.21	-353.73	1785	348.31	-279.16	1018.1	427.4	-278.73	1019.1	197.72	-479.78	1038.2	348.13	-476.71	1039.5	254.95	-352.47	910.4	497.1	-350.49	908.36	125.26	-373.14	1086.8	469.57	-374.69	1097.8	163.96	-493.62	997.05	301.37	-405.56	714.54	477.26	-344.06	608.84	434.68	-411.34	625.99	454.97	-329.27	700.01	460.26	-398.5	516.02	427.35	-427.73	528.2	302.3	-496.11	343.4	428.64	-445.43	274.29	402.18	-508.55	268.27	416.45	-432.63	349.94	415.32	-533.39	104.57	369.3	-509.1	117.36	292.87	-587.5	70.349	324.53	-576.37	41.109	299.16	-582.09	47.849	360.19	NaN	NaN	NaN	-386.67	43.519	285.06	-321.53	53.232	333.14	-268.27	705.43	142.34	-149.95	663.92	160.23	-212.8	634.19	158.69	-201.59	734.46	138.34	-158.77	557.69	174.64	-148.79	555.24	297.79	-207.36	379.55	168.22	-136.5	294.28	182.74	-207.19	306.62	181.87	-142.76	369.44	169.96	-180.55	133.83	187.91	-148.73	140.86	271.54	-228.58	101.63	240.06	-211.14	70.453	271.45	-222.22	73.642	208.22	-49.926	69.759	164.77	-22.359	81.888	276.34	35.301	100.05	222.73	-435.38	1523.3	324.78	-482.92	1242.3	331.92
201	0.83333	-241.93	1229.9	310.22	-346.59	1465.8	491.72	-378.1	1491.9	157.14	-348.34	1784.2	348.01	-273.9	1017.3	427.4	-273.19	1018.5	197.67	-474.35	1037.3	347.8	-471.21	1038.7	254.63	-347.68	909.78	496.97	-344.78	907.58	125.12	-367.87	1085.9	469.39	-369.21	1097	163.77	-488.15	996.2	301.02	-402.02	714.36	477.07	-341.04	608.22	434.84	-408.27	625.83	454.79	-325.81	699.35	460.39	-396.1	515.71	427.35	-424.69	527.97	302.14	-494.73	343.63	428.38	-444.34	274.19	402.07	-507.56	268.56	416.18	-431.15	349.75	415.23	-533.12	104.89	368.96	-508.61	117.55	292.59	-587.24	70.563	324.08	-576.16	41.252	298.78	-581.99	48.123	359.79	NaN	NaN	NaN	-386.47	43.475	285.02	-321.38	52.905	333.2	-263.54	704.31	142.25	-145.39	662.45	160.45	-208.32	632.9	158.7	-196.76	733.15	138.43	-153.98	556.42	174.8	-144.57	553.83	298.04	-198.66	376.96	168.27	-125.77	293.37	182.98	-196.8	304.04	181.93	-133.8	368.39	170.17	-165.75	131.6	188.12	-134.36	139.52	271.91	-213.32	98.292	240.12	-195.1	67.616	271.75	-206.11	70.387	208.45	-33.605	70.442	165.5	-6.6198	83.498	277.17	50.746	102.85	223.63	-429.87	1522.5	324.74	-477.49	1241.4	331.86
202	0.8375	-236.49	1228.9	310.23	-341.01	1464.9	491.65	-372.65	1490.9	157.06	-342.97	1783.4	347.71	-268.62	1016.4	427.39	-267.64	1017.8	197.61	-468.91	1036.4	347.48	-465.7	1037.8	254.31	-342.85	909.14	496.83	-339.07	906.75	124.96	-362.58	1085.1	469.2	-363.7	1096.2	163.56	-482.67	995.31	300.67	-398.42	714.17	476.87	-337.93	607.59	435.01	-405.12	625.65	454.6	-322.3	698.68	460.53	-393.61	515.38	427.34	-421.54	527.71	301.96	-493.26	343.86	428.12	-443.19	274.08	401.95	-506.5	268.85	415.9	-429.58	349.55	415.12	-532.84	105.22	368.62	-508.09	117.75	292.3	-586.97	70.8	323.62	-575.96	41.421	298.4	-581.9	48.416	359.38	NaN	NaN	NaN	-386.27	43.428	284.98	-321.21	52.57	333.26	-258.85	703.14	142.13	-140.88	660.94	160.66	-203.88	631.56	158.69	-191.98	731.79	138.48	-149.23	555.07	174.94	-140.38	552.38	298.29	-190.11	374.45	168.35	-115.32	292.51	183.24	-186.63	301.56	182.03	-125.04	367.36	170.39	-151.34	129.55	188.38	-120.38	138.32	272.32	-198.46	95.176	240.24	-179.47	64.991	272.1	-190.4	67.366	208.74	-17.766	71.25	166.26	8.6195	85.183	278.03	65.687	105.7	224.57	-424.37	1521.7	324.7	-472.05	1240.5	331.79
203	0.84167	-231.04	1228	310.22	-335.43	1463.9	491.58	-367.21	1489.9	156.97	-337.59	1782.5	347.4	-263.31	1015.5	427.38	-262.07	1017	197.54	-463.44	1035.5	347.15	-460.18	1036.9	253.98	-338	908.48	496.69	-333.34	905.89	124.8	-357.26	1084.2	469.01	-358.18	1095.3	163.34	-477.16	994.4	300.33	-394.76	713.94	476.66	-334.75	606.95	435.18	-401.89	625.44	454.4	-318.71	697.99	460.67	-391.01	515.04	427.31	-418.28	527.42	301.77	-491.69	344.09	427.85	-441.96	273.97	401.82	-505.37	269.16	415.6	-427.92	349.34	415	-532.53	105.59	368.28	-507.55	117.98	292	-586.7	71.066	323.16	-575.75	41.624	298	-581.8	48.735	358.96	NaN	NaN	NaN	-386.06	43.377	284.93	-321.05	52.229	333.31	-254.18	701.91	141.97	-136.39	659.38	160.84	-199.46	630.18	158.65	-187.22	730.38	138.49	-144.53	553.68	175.06	-136.22	550.91	298.53	-181.74	372.02	168.46	-105.15	291.69	183.52	-176.72	299.2	182.15	-116.49	366.34	170.63	-137.35	127.67	188.7	-106.83	137.25	272.78	-184.06	92.277	240.4	-164.3	62.57	272.5	-175.14	64.569	209.08	-2.4485	72.157	167.06	23.328	86.917	278.94	80.096	108.55	225.54	-418.88	1520.8	324.64	-466.61	1239.6	331.71
204	0.84583	-225.58	1227	310.19	-329.83	1463	491.48	-361.78	1488.9	156.88	-332.22	1781.6	347.08	-257.97	1014.6	427.36	-256.48	1016.2	197.46	-457.95	1034.6	346.82	-454.63	1036	253.65	-333.11	907.8	496.55	-327.61	905.01	124.63	-351.92	1083.3	468.81	-352.63	1094.5	163.1	-471.63	993.46	299.98	-391.02	713.69	476.44	-331.47	606.29	435.35	-398.58	625.21	454.18	-315.06	697.3	460.8	-388.29	514.68	427.26	-414.91	527.11	301.56	-490.02	344.32	427.57	-440.65	273.85	401.68	-504.15	269.47	415.3	-426.16	349.12	414.85	-532.21	105.98	367.94	-507	118.22	291.71	-586.41	71.368	322.7	-575.53	41.866	297.6	-581.7	49.083	358.53	NaN	NaN	NaN	-385.85	43.323	284.89	-320.87	51.88	333.37	-249.54	700.66	141.79	-131.92	657.8	161.01	-195.06	628.77	158.61	-182.47	728.93	138.47	-139.87	552.23	175.16	-132.06	549.41	298.76	-173.55	369.66	168.6	-95.283	290.9	183.82	-167.06	296.94	182.32	-108.16	365.33	170.88	-123.82	125.94	189.08	-93.747	136.3	273.29	-170.13	89.586	240.63	-149.64	60.34	272.96	-160.38	61.988	209.47	12.313	73.135	167.9	37.475	88.672	279.88	93.945	111.38	226.55	-413.38	1519.9	324.58	-461.15	1238.7	331.62
205	0.85	-220.12	1225.9	310.14	-324.23	1462	491.38	-356.35	1487.9	156.78	-326.85	1780.7	346.75	-252.61	1013.7	427.33	-250.87	1015.4	197.36	-452.44	1033.6	346.49	-449.06	1035	253.32	-328.18	907.11	496.41	-321.86	904.1	124.44	-346.55	1082.4	468.61	-347.06	1093.6	162.85	-466.08	992.49	299.63	-387.22	713.42	476.21	-328.09	605.62	435.5	-395.17	624.95	453.94	-311.32	696.59	460.93	-385.45	514.3	427.2	-411.43	526.77	301.35	-488.25	344.55	427.29	-439.26	273.73	401.52	-502.85	269.79	414.99	-424.3	348.88	414.69	-531.86	106.4	367.6	-506.43	118.5	291.41	-586.11	71.712	322.24	-575.32	42.155	297.2	-581.59	49.467	358.11	NaN	NaN	NaN	-385.63	43.266	284.85	-320.69	51.526	333.43	-244.89	699.37	141.6	-127.45	656.21	161.15	-190.65	627.34	158.56	-177.74	727.47	138.42	-135.22	550.76	175.23	-127.9	547.92	298.99	-165.57	367.39	168.76	-85.736	290.14	184.14	-157.69	294.78	182.52	-100.06	364.33	171.15	-110.78	124.35	189.52	-81.15	135.44	273.85	-156.74	87.097	240.91	-135.52	58.29	273.47	-146.15	59.612	209.93	26.483	74.153	168.78	51.033	90.415	280.86	107.21	114.15	227.6	-407.89	1519	324.51	-455.68	1237.8	331.54
206	0.85417	-214.64	1224.9	310.06	-318.62	1461	491.26	-350.93	1486.9	156.67	-321.49	1779.8	346.42	-247.22	1012.8	427.3	-245.25	1014.6	197.26	-446.91	1032.6	346.16	-443.48	1034.1	252.98	-323.23	906.4	496.27	-316.1	903.17	124.24	-341.15	1081.5	468.39	-341.48	1092.6	162.59	-460.51	991.51	299.28	-383.32	713.11	475.97	-324.6	604.94	435.64	-391.65	624.66	453.69	-307.5	695.87	461.04	-382.48	513.91	427.1	-407.82	526.4	301.11	-486.37	344.8	427	-437.78	273.61	401.35	-501.46	270.12	414.69	-422.34	348.63	414.51	-531.49	106.86	367.28	-505.84	118.81	291.13	-585.8	72.108	321.81	-575.1	42.498	296.81	-581.48	49.892	357.7	NaN	NaN	NaN	-385.41	43.207	284.81	-320.51	51.167	333.49	-240.25	698.08	141.39	-122.97	654.62	161.28	-186.24	625.91	158.5	-173	725.99	138.34	-130.59	549.25	175.3	-123.72	546.43	299.21	-157.79	365.2	168.96	-76.522	289.38	184.49	-148.63	292.73	182.76	-92.195	363.34	171.44	-98.258	122.88	190.01	-69.072	134.66	274.45	-143.89	84.798	241.24	-121.98	56.407	274.03	-132.49	57.428	210.43	40.031	75.179	169.69	63.975	92.113	281.87	119.87	116.81	228.67	-402.41	1518.1	324.43	-450.2	1236.8	331.44
